<svg xmlns="http://www.w3.org/2000/svg" xmlns:xlink="http://www.w3.org/1999/xlink" width="24" height="24" viewBox="0 0 24 24" fill="none">
<path     fill="#FFFFFF"  d="M22.3125 13.375L20.1253 13.375C19.907 14.6195 19.4052 15.7638 18.6972 16.7527L20.2643 18.3198C20.5329 18.5883 20.5329 19.0235 20.2643 19.292L19.2921 20.2643C19.0235 20.5328 18.5883 20.5328 18.3198 20.2643L16.746 18.6905C15.7553 19.3898 14.6213 19.9012 13.375 20.1114L13.375 22.3125C13.375 22.6921 13.0672 23 12.6875 23L11.3125 23C10.9329 23 10.625 22.6921 10.625 22.3125L10.625 20.1114C9.37734 19.9009 8.23059 19.4049 7.24072 18.7038L5.68024 20.2643C5.41169 20.5328 4.97651 20.5328 4.70798 20.2643L3.73572 19.292C3.46718 19.0235 3.46718 18.5883 3.73572 18.3198L5.2918 16.7637C4.58519 15.7738 4.08579 14.6254 3.87473 13.375L1.6875 13.375C1.30786 13.375 1 13.0672 1 12.6875L1 11.3125C1 10.9329 1.30786 10.6251 1.6875 10.6251L3.87471 10.6251C4.09306 9.38053 4.5948 8.23626 5.30279 7.24736L3.7357 5.68028C3.46716 5.41173 3.46716 4.97654 3.7357 4.70802L4.70796 3.73576C4.97651 3.46722 5.41169 3.46722 5.68021 3.73576L7.25403 5.30958C8.24472 4.61026 9.37869 4.09889 10.625 3.88866L10.625 1.68749C10.625 1.30786 10.9329 1 11.3125 1L12.6875 1C13.0672 1 13.375 1.30786 13.375 1.68749L13.375 3.8886C14.6227 4.0991 15.7695 4.59508 16.7593 5.29619L18.3198 3.7357C18.5884 3.46715 19.0235 3.46715 19.2921 3.7357L20.2643 4.70796C20.5329 4.9765 20.5329 5.41169 20.2643 5.68021L18.7082 7.23629C19.4148 8.22616 19.9142 9.37455 20.1253 10.625L22.3125 10.625C22.6921 10.625 23 10.9328 23 11.3125L23 12.6875C23 13.0671 22.6922 13.375 22.3125 13.375ZM12 6.5C8.96249 6.5 6.50001 8.96249 6.50001 12C6.50001 15.0375 8.96249 17.5 12 17.5C15.0375 17.5 17.5 15.0375 17.5 12C17.5 8.96249 15.0375 6.5 12 6.5Z">
</path>
<path fill-rule="evenodd"  fill="rgba(0, 0, 0, 1)"  d="M20.926 14.375L22.3125 14.375C23.2445 14.375 24.0001 13.6194 24 12.6875L24 11.3125C24 10.3805 23.2445 9.62497 22.3125 9.62497L20.9308 9.62497Q20.6157 8.44069 19.9873 7.37142L20.9714 6.38735C21.6304 5.72836 21.6304 4.65986 20.9714 4.00085L19.9992 3.02862C19.3402 2.36958 18.2717 2.36958 17.6127 3.02859L16.6223 4.01904Q15.5551 3.39614 14.375 3.08285L14.375 1.68749C14.375 0.755517 13.6195 0 12.6875 0L11.3125 0Q9.62509 2.38419e-07 9.625 1.68749L9.625 3.08524Q8.46639 3.39898 7.39045 4.03178L6.38735 3.02869C5.72836 2.36965 4.65987 2.36964 4.00085 3.02866L3.02862 4.00088C2.36958 4.65987 2.36958 5.72837 3.0286 6.38738L4.02271 7.38149Q3.39416 8.44617 3.07399 9.62505L1.6875 9.62505C0.755518 9.62505 0 10.3806 0 11.3125L0 12.6875C0 13.6195 0.755518 14.375 1.6875 14.375L3.06924 14.375Q3.38431 15.5593 4.01271 16.6286L3.02864 17.6127C2.36961 18.2716 2.3696 19.3401 3.02862 19.9992L4.00084 20.9714C4.65983 21.6304 5.72833 21.6304 6.38734 20.9714L7.37779 19.981Q8.44492 20.6039 9.62502 20.9171L9.62502 22.3125C9.62502 23.2445 10.3805 24 11.3125 24L12.6875 24C13.6195 24 14.375 23.2445 14.375 22.3125L14.375 20.9148Q15.5336 20.6011 16.6096 19.9683L17.6127 20.9714C18.2717 21.6304 19.3402 21.6304 19.9992 20.9714L20.9714 19.9992C21.6304 19.3402 21.6304 18.2717 20.9714 17.6127L19.9773 16.6186Q20.6059 15.5539 20.926 14.375ZM20.1253 13.375L22.3125 13.375C22.6922 13.375 23 13.0671 23 12.6875L23 11.3125C23 10.9328 22.6921 10.625 22.3125 10.625L20.1253 10.625C19.9142 9.37455 19.4148 8.22616 18.7082 7.23629L20.2643 5.68021C20.5329 5.41169 20.5329 4.9765 20.2643 4.70796L19.2921 3.7357C19.0235 3.46715 18.5884 3.46715 18.3198 3.7357L16.7593 5.29619C15.7695 4.59508 14.6227 4.0991 13.375 3.8886L13.375 1.68749C13.375 1.30786 13.0672 1 12.6875 1L11.3125 1C10.9329 1 10.625 1.30786 10.625 1.68749L10.625 3.88866C9.37869 4.09889 8.24472 4.61026 7.25403 5.30958L5.68021 3.73576C5.41169 3.46722 4.97651 3.46722 4.70796 3.73576L3.7357 4.70802C3.46716 4.97654 3.46716 5.41173 3.7357 5.68028L5.30279 7.24736C4.5948 8.23626 4.09306 9.38053 3.87471 10.6251L1.6875 10.6251C1.30786 10.6251 1 10.9329 1 11.3125L1 12.6875C1 13.0672 1.30786 13.375 1.6875 13.375L3.87473 13.375C4.08579 14.6254 4.58519 15.7738 5.2918 16.7637L3.73572 18.3198C3.46718 18.5883 3.46718 19.0235 3.73572 19.292L4.70798 20.2643C4.97651 20.5328 5.41169 20.5328 5.68024 20.2643L7.24072 18.7038C8.23059 19.4049 9.37734 19.9009 10.625 20.1114L10.625 22.3125C10.625 22.6921 10.9329 23 11.3125 23L12.6875 23C13.0672 23 13.375 22.6921 13.375 22.3125L13.375 20.1114C14.6213 19.9012 15.7553 19.3898 16.746 18.6905L18.3198 20.2643C18.5883 20.5328 19.0235 20.5328 19.2921 20.2643L20.2643 19.292C20.5329 19.0235 20.5329 18.5883 20.2643 18.3198L18.6972 16.7527C19.4052 15.7638 19.907 14.6195 20.1253 13.375ZM6.50001 12C6.50001 8.96249 8.96249 6.5 12 6.5C15.0375 6.5 17.5 8.96249 17.5 12C17.5 15.0375 15.0375 17.5 12 17.5C8.96249 17.5 6.50001 15.0375 6.50001 12ZM7.50001 12C7.50001 9.51472 9.51473 7.5 12 7.5C14.4853 7.5 16.5 9.51472 16.5 12C16.5 14.4853 14.4853 16.5 12 16.5C9.51473 16.5 7.50001 14.4853 7.50001 12Z">
</path>
</svg>
